<svg width="1918" height="378" viewBox="0 0 1918 378" fill="none" xmlns="http://www.w3.org/2000/svg">
<path d="M1920 12.585H1909.61V44.0479H1920V333.822H1909.61V365.285H1920V378H0V0H1920V12.585ZM36.1904 333.822V365.285H57.4795V333.822H36.1904ZM78.7686 333.822V365.285H100.058V333.822H78.7686ZM121.347 333.822V365.285H142.635V333.822H121.347ZM163.924 333.822V365.285H185.213V333.822H163.924ZM206.502 333.822V365.285H227.791V333.822H206.502ZM249.08 333.822V365.285H270.368V333.822H249.08ZM291.657 333.822V365.285H312.946V333.822H291.657ZM334.234 333.822V365.285H355.523V333.822H334.234ZM376.812 333.822V365.285H398.102V333.822H376.812ZM419.392 333.822V365.285H440.68V333.822H419.392ZM461.969 333.822V365.285H483.258V333.822H461.969ZM504.546 333.822V365.285H525.835V333.822H504.546ZM547.124 333.822V365.285H568.412V333.822H547.124ZM589.702 333.822V365.285H610.991V333.822H589.702ZM632.279 333.822V365.285H653.568V333.822H632.279ZM674.857 333.822V365.285H696.146V333.822H674.857ZM717.435 333.822V365.285H738.724V333.822H717.435ZM760.013 333.822V365.285H781.302V333.822H760.013ZM802.591 333.822V365.285H823.88V333.822H802.591ZM845.168 333.822V365.285H866.457V333.822H845.168ZM887.746 333.822V365.285H909.035V333.822H887.746ZM930.324 333.822V365.285H951.612V333.822H930.324ZM972.902 333.822V365.285H994.19V333.822H972.902ZM1015.48 333.822V365.285H1036.77V333.822H1015.48ZM1058.06 333.822V365.285H1079.35V333.822H1058.06ZM1100.64 333.822V365.285H1121.92V333.822H1100.64ZM1143.21 333.822V365.285H1164.5V333.822H1143.21ZM1185.79 333.822V365.285H1207.08V333.822H1185.79ZM1228.37 333.822V365.285H1249.66V333.822H1228.37ZM1270.95 333.822V365.285H1292.24V333.822H1270.95ZM1313.52 333.822V365.285H1334.81V333.822H1313.52ZM1356.1 333.822V365.285H1377.39V333.822H1356.1ZM1398.68 333.822V365.285H1419.97V333.822H1398.68ZM1441.26 333.822V365.285H1462.55V333.822H1441.26ZM1483.83 333.822V365.285H1505.12V333.822H1483.83ZM1526.41 333.822V365.285H1547.7V333.822H1526.41ZM1568.99 333.822V365.285H1590.28V333.822H1568.99ZM1611.57 333.822V365.285H1632.86V333.822H1611.57ZM1654.15 333.822V365.285H1675.44V333.822H1654.15ZM1696.72 333.822V365.285H1718.01V333.822H1696.72ZM1739.3 333.822V365.285H1760.59V333.822H1739.3ZM1781.88 333.822V365.285H1803.17V333.822H1781.88ZM1824.46 333.822V365.285H1845.75V333.822H1824.46ZM1867.04 333.822V365.285H1888.32V333.822H1867.04ZM36.1904 12.585V44.0479H57.4795V12.585H36.1904ZM78.7686 12.585V44.0479H100.058V12.585H78.7686ZM121.347 12.585V44.0479H142.635V12.585H121.347ZM163.924 12.585V44.0479H185.213V12.585H163.924ZM206.502 12.585V44.0479H227.791V12.585H206.502ZM249.08 12.585V44.0479H270.368V12.585H249.08ZM291.657 12.585V44.0479H312.946V12.585H291.657ZM334.234 12.585V44.0479H355.523V12.585H334.234ZM376.812 12.585V44.0479H398.102V12.585H376.812ZM419.392 12.585V44.0479H440.68V12.585H419.392ZM461.969 12.585V44.0479H483.258V12.585H461.969ZM504.546 12.585V44.0479H525.835V12.585H504.546ZM547.124 12.585V44.0479H568.412V12.585H547.124ZM589.702 12.585V44.0479H610.991V12.585H589.702ZM632.279 12.585V44.0479H653.568V12.585H632.279ZM674.857 12.585V44.0479H696.146V12.585H674.857ZM717.435 12.585V44.0479H738.724V12.585H717.435ZM760.013 12.585V44.0479H781.302V12.585H760.013ZM802.591 12.585V44.0479H823.88V12.585H802.591ZM845.168 12.585V44.0479H866.457V12.585H845.168ZM887.746 12.585V44.0479H909.035V12.585H887.746ZM930.324 12.585V44.0479H951.612V12.585H930.324ZM972.902 12.585V44.0479H994.19V12.585H972.902ZM1015.48 12.585V44.0479H1036.77V12.585H1015.48ZM1058.06 12.585V44.0479H1079.35V12.585H1058.06ZM1100.64 12.585V44.0479H1121.92V12.585H1100.64ZM1143.21 12.585V44.0479H1164.5V12.585H1143.21ZM1185.79 12.585V44.0479H1207.08V12.585H1185.79ZM1228.37 12.585V44.0479H1249.66V12.585H1228.37ZM1270.95 12.585V44.0479H1292.24V12.585H1270.95ZM1313.52 12.585V44.0479H1334.81V12.585H1313.52ZM1356.1 12.585V44.0479H1377.39V12.585H1356.1ZM1398.68 12.585V44.0479H1419.97V12.585H1398.68ZM1441.26 12.585V44.0479H1462.55V12.585H1441.26ZM1483.83 12.585V44.0479H1505.12V12.585H1483.83ZM1526.41 12.585V44.0479H1547.7V12.585H1526.41ZM1568.99 12.585V44.0479H1590.28V12.585H1568.99ZM1611.57 12.585V44.0479H1632.86V12.585H1611.57ZM1654.15 12.585V44.0479H1675.44V12.585H1654.15ZM1696.72 12.585V44.0479H1718.01V12.585H1696.72ZM1739.3 12.585V44.0479H1760.59V12.585H1739.3ZM1781.88 12.585V44.0479H1803.17V12.585H1781.88ZM1824.46 12.585V44.0479H1845.75V12.585H1824.46ZM1867.04 12.585V44.0479H1888.32V12.585H1867.04Z" fill="#262626"/>
</svg>
